<svg version="1.1" xmlns="http://www.w3.org/2000/svg" xmlns:xlink="http://www.w3.org/1999/xlink" x="0px" y="0px" viewBox="0 0 16 16" style="enable-background:new 0 0 16 16;" xml:space="preserve">
<style type="text/css">
    .st0{fill:url(#gradient);}
    .st1{fill:#FFFFFF;}
</style>
<defs>
    <linearGradient id="gradient" gradientUnits="userSpaceOnUse" x1="0" y1="0" x2="16" y2="16">
        <stop offset="0" style="stop-color:#F09C42"/>
        <stop offset="1" style="stop-color:#AF4E26"/>
    </linearGradient>
</defs>
<rect class="st0" width="16" height="16"/>
<path class="st1" d="M6.3,11.2c1-0.3,1.2-0.5,1.4-1.6c0.2,1.1,0.4,1.3,1.4,1.6c-1,0.3-1.2,0.4-1.4,1.6 C7.5,11.6,7.3,11.4,6.3,11.2z M6.4,6.8c2.3-0.6,2.7-1,3.2-3.5c0.5,2.5,0.9,3,3.2,3.5c-2.3,0.6-2.7,1-3.2,3.5 C9.1,7.8,8.7,7.3,6.4,6.8L6.4,6.8z M3.3,8.1c1.2-0.3,1.4-0.5,1.6-1.8c0.3,1.3,0.5,1.5,1.6,1.8c-1.2,0.3-1.4,0.5-1.6,1.8 C4.6,8.6,4.4,8.3,3.3,8.1z"/>
</svg>