<svg xmlns="http://www.w3.org/2000/svg" xmlns:xlink="http://www.w3.org/1999/xlink" width="1080" height="1080" viewBox="0 0 1080 1080"><defs><linearGradient id="a" x2="1" y2="1" gradientUnits="objectBoundingBox"><stop offset="0" stop-color="#f09c42"/><stop offset="1" stop-color="#af4e26"/><stop offset="1" stop-color="#381c19"/></linearGradient></defs><g transform="translate(-4757 2494)"><g transform="translate(2366 -13942)"><rect width="1080" height="1080" rx="150" transform="translate(2391 11448)" fill="url(#a)"/></g><path d="M264.564,526.557a35.26,35.26,0,0,1-49.881,0L15.5,327.344a52.89,52.89,0,0,1,0-74.821l24.94-24.947a52.9,52.9,0,0,1,74.828,0l124.353,124.36L575.644,15.909a52.9,52.9,0,0,1,74.828,0l24.94,24.947a52.89,52.89,0,0,1,0,74.821Zm0,0" transform="translate(4951.542 -2222.649)" fill="#fff"/></g></svg>