<svg xmlns="http://www.w3.org/2000/svg" xmlns:xlink="http://www.w3.org/1999/xlink" width="1080" height="1080" viewBox="0 0 1080 1080"><defs><linearGradient id="a" x2="1" y2="1" gradientUnits="objectBoundingBox"><stop offset="0" stop-color="#f09c42"/><stop offset="1" stop-color="#af4e26"/><stop offset="1" stop-color="#381c19"/></linearGradient><clipPath id="b"><rect width="531.909" height="683.852" fill="#fff"/></clipPath></defs><g transform="translate(-1121 -11448)"><rect width="1080" height="1080" rx="150" transform="translate(1121 11448)" fill="url(#a)"/><g transform="translate(1395.046 11646.075)"><g clip-path="url(#b)"><path d="M370.977,349.707a45.842,45.842,0,0,1-45.852-45.852,44.88,44.88,0,0,1,.677-7.835L216.149,232.88a46.122,46.122,0,1,1,15.486-26.51l109.256,62.907a45.842,45.842,0,1,1,30.086,80.429M231.9,410.6a45.891,45.891,0,1,1-16.056-34.84l79.941-45.943a79.7,79.7,0,0,0,15.468,26.526l-80.086,46.035a47.319,47.319,0,0,1,.733,8.223M507.61,130.769,289.876,6.351a48.249,48.249,0,0,0-47.852,0L24.307,130.769A48.236,48.236,0,0,0,0,172.645V425.736A48.23,48.23,0,0,0,24.116,467.5L398.933,683.851,399,530.182,507.763,467.5a48.224,48.224,0,0,0,24.146-41.785V172.645a48.245,48.245,0,0,0-24.3-41.877" transform="translate(0 0)" fill="#fff"/></g></g></g></svg>