<svg xmlns="http://www.w3.org/2000/svg" viewBox="0 0 64 64">
    <path fill="var(--icon-color-accent, #ff8700)"
          d="M25.7 27c9.1-2.2 10.7-3.9 12.6-14 2 10 3.6 11.8 12.6 14-9.1 2.2-10.7 3.9-12.6 14-1.9-10-3.5-11.8-12.6-14Z"/>
    <path fill="var(--icon-color-accent, #ff8700)"
          d="M13 32.2c4.6-1.1 5.4-2 6.4-7 1 5 1.8 5.9 6.4 7-4.6 1.1-5.4 2-6.4 7-1-5-1.8-5.9-6.4-7Z"/>
    <path fill="var(--icon-color-accent, #ff8700)" opacity=".4"
          d="M25.3 44.7c4-1 4.7-1.8 5.6-6.2.9 4.5 1.6 5.2 5.6 6.2-4 1-4.7 1.7-5.6 6.2-.9-4.5-1.6-5.2-5.6-6.2Z"/>
</svg>
