<svg xmlns="http://www.w3.org/2000/svg" xmlns:xlink="http://www.w3.org/1999/xlink" width="1080" height="1080" viewBox="0 0 1080 1080"><defs><linearGradient id="a" x2="1" y2="1" gradientUnits="objectBoundingBox"><stop offset="0" stop-color="#f09c42"/><stop offset="1" stop-color="#af4e26"/><stop offset="1" stop-color="#381c19"/></linearGradient><clipPath id="b"><rect width="400.531" height="554.578" fill="none"/></clipPath></defs><g transform="translate(-3661 -11448)"><rect width="1080" height="1080" rx="150" transform="translate(3661 11448)" fill="url(#a)"/><g transform="translate(4000.734 11710.711)"><g clip-path="url(#b)"><path d="M339.2,306.581c0-39.224-32.065-71.011-71.616-71.011H151.324V207.513c0-34.308,26.62-62.491,60.5-65.239,1.815-.176,3.68-.252,5.521-.252H328.915a71.759,71.759,0,0,0,50.643-20.8,70.451,70.451,0,0,0,20.973-50.189C400.531,31.787,368.492,0,328.915,0H154.4C69.121,0,0,68.541,0,153.089v326.47c0,.378,0,.756.025,1.134v.025A74.405,74.405,0,0,0,22.158,532.6a75.674,75.674,0,0,0,53.492,21.981c41.795,0,75.675-33.6,75.675-75.019V377.592h116.26A71.638,71.638,0,0,0,318.2,356.8a70.473,70.473,0,0,0,21-50.214" fill="#fff"/><path d="M65.531,20.166c-29.771,0-53.92,10.335-53.92,23.116,0,12.755,24.149,23.091,53.92,23.091s53.92-10.335,53.92-23.091c0-12.78-24.149-23.116-53.92-23.116" transform="translate(281.08 488.18)" fill="#fff"/></g></g></g></svg>