<svg xmlns="http://www.w3.org/2000/svg" xmlns:xlink="http://www.w3.org/1999/xlink" width="1080" height="1080" viewBox="0 0 1080 1080"><defs><linearGradient id="a" x2="1" y2="1" gradientUnits="objectBoundingBox"><stop offset="0" stop-color="#f09c42"/><stop offset="1" stop-color="#af4e26"/><stop offset="1" stop-color="#381c19"/></linearGradient><clipPath id="b"><rect width="601.911" height="611.554" fill="#fff"/></clipPath></defs><g transform="translate(-2391 -11448)"><rect width="1080" height="1080" rx="150" transform="translate(2391 11448)" fill="url(#a)"/><g transform="translate(2630.044 11682.223)"><g clip-path="url(#b)"><path d="M453.844,219.572h-42.1L362.346,350.35a341.061,341.061,0,0,1-124.9-57.391,338.241,338.241,0,0,0,83.619-170.412h61.273a23.522,23.522,0,0,0,0-47.043H226.511V23.521a23.522,23.522,0,0,0-47.043,0V75.5H23.521a23.522,23.522,0,0,0,0,47.043H84.912a337.884,337.884,0,0,0,83.5,170.412A347.059,347.059,0,0,1,33.635,352.819a23.657,23.657,0,0,0,5.057,47.043,18.952,18.952,0,0,0,5.175-.589,382.921,382.921,0,0,0,159.122-73.5,376.339,376.339,0,0,0,142.657,69.388l-81.972,216.4h60.8l31.754-91.263H508.413l32.107,91.263h61.39ZM273.906,122.546a279.44,279.44,0,0,1-70.564,139.481,278.845,278.845,0,0,1-70.564-139.482ZM375.988,465.369l56.8-162.65,56.333,162.65Z" fill="#fff"/></g></g></g></svg>