<?xml version="1.0" encoding="UTF-8"?>
<svg id="Ebene_1" xmlns="http://www.w3.org/2000/svg" xmlns:xlink="http://www.w3.org/1999/xlink" version="1.1" viewBox="0 0 1080 1080">
  <!-- Generator: Adobe Illustrator 29.3.1, SVG Export Plug-In . SVG Version: 2.1.0 Build 151)  -->
  <defs>
    <style>
      .st0 {
        fill: url(#Unbenannter_Verlauf);
      }

      .st1 {
        fill: #fff;
      }
    </style>
    <linearGradient id="Unbenannter_Verlauf" data-name="Unbenannter Verlauf" x1="-22" y1="1758.4" x2="-21" y2="1757.4" gradientTransform="translate(23738 1899043) scale(1080 -1080)" gradientUnits="userSpaceOnUse">
      <stop offset="0" stop-color="#f09c42"/>
      <stop offset="1" stop-color="#af4e26"/>
      <stop offset="1" stop-color="#381c19"/>
    </linearGradient>
  </defs>
  <rect class="st0" width="1080" height="1080" rx="150" ry="150"/>
  <g>
    <path class="st1" d="M880,808.2c-12.4,0-21.7-7.8-33.5-17.7-12.9-10.8-28.9-24.3-51.5-24.3s-38.6,13.5-51.5,24.3c-11.8,9.9-21.1,17.7-33.5,17.7s-8.9-1.1-12.9-3c61.6-30.3,110.1-61.9,147.9-96.2,4.4-4,5.8-10.3,3.5-15.8-2.2-5.2-7.2-8.5-13.8-8.5l-590,38c-2,.1-3.9.7-5.6,1.6-6.9,3.6-9.5,12-5.9,18.9l16.3,31.1c-8.7,5.5-16.8,11.9-24.5,17.9-7.7,6-20.5,16.1-24.9,16.1-7.7,0-14,6.3-14,14s6.3,14,14,14c14.1,0,27.1-10.3,42.2-22.1,8.8-6.9,18.4-14.5,28.1-19.7,1.6-.2,3.2-.7,4.7-1.5,1.1-.6,2.1-1.3,2.9-2.1,2.6-1,5.1-1.8,7.7-2.4,3.1,1,9.2,6.8,14.2,11.5,14.4,13.6,34.1,32.2,68.5,36.3.6,0,1.1.1,1.7,0,22.6,0,38.6-13.5,51.5-24.3,11.8-9.9,21.1-17.7,33.5-17.7s21.7,7.8,33.5,17.7c12.9,10.8,28.9,24.3,51.5,24.3s38.6-13.5,51.5-24.3c11.8-9.9,21.1-17.7,33.5-17.7s21.6,7.7,33.3,17.5c1.2,1.5,2.7,2.7,4.4,3.6,12.2,10,27.1,20.8,47.4,20.8s38.6-13.5,51.5-24.3c11.8-9.9,21.1-17.7,33.5-17.7s21.7,7.8,33.5,17.7c12.9,10.8,28.9,24.3,51.5,24.3s14-6.3,14-14-6.3-14-14-14ZM540,808.2c-12.4,0-21.7-7.8-33.5-17.7-12.9-10.8-28.9-24.3-51.5-24.3s-38.6,13.5-51.5,24.3c-11.7,9.8-20.9,17.5-32.3,17.8-24.9-3.2-40-17.4-52.1-28.8-10.5-9.9-20.4-19.2-34-19.2-.8,0-1.6,0-2.4.2-2.7.5-5.3,1.1-7.9,1.8l-6.8-13.1,525.2-33.8c-33.1,24.7-73.1,48.1-121.5,71-12-9.8-26.8-20.2-46.6-20.2s-38.6,13.5-51.5,24.3c-11.8,9.9-21.1,17.7-33.5,17.7Z"/>
    <path class="st1" d="M472.4,340.2c48.5,33.6,90.8,80.1,125.6,138.3,30.8,51.5,56,112.4,74.9,180.9,2,7.4,9.6,11.8,17,9.9,7.6-2,15.4-3.1,23.3-3.2,15.8,0,27.9,4.9,43.7,11.3l7,2.8c1.6.6,3.4,1,5.1,1,1.4,0,2.7-.2,4-.6,7.4-2.2,11.6-10,9.4-17.4-22.9-76.3-68.2-155.4-127.5-222.7-55.9-63.5-118.1-109.1-170.4-125.1-6.6-2-13.7,1.1-16.7,7.3-3,6.2-1.1,13.7,4.6,17.6ZM584.1,408.6c69.5,61,130.1,148,162.2,234.9-10.7-3.5-21.9-5.4-33.1-5.4h0c-5.7,0-11.3.5-16.9,1.3-19.1-65.8-44.1-124.8-74.3-175.3-11.5-19.3-24.2-37.8-38-55.5Z"/>
    <path class="st1" d="M277.3,690.3c0,7.7,6.3,14,14,14,2.6,0,5.1-.7,7.4-2.1,55-33.9,114.1-51.1,175.8-51.1s99.4,10.6,151.4,31.6c4.7,1.8,10,1.1,14-2,3.9-3.1,5.9-8.2,5.1-13.1-15-94.6-62.1-187.7-136.1-269.1-60.5-66.5-136.9-122.5-209.6-153.6-4.1-1.8-8.8-1.4-12.7.8-6.6,4-8.8,12.6-4.9,19.2,26.2,44,58.9,113.3,65.7,193.3,7,82.8-15.5,158-67.1,223.5-1.9,2.5-3,5.5-3,8.7ZM375.3,455.8c-4.7-54.9-20.9-110.8-48.4-166.4h0c57.4,31.1,114.1,76.1,161.3,127.9,63.8,70.2,106.7,149.7,124.6,230.6-47.1-16.4-93.6-24.7-138.4-24.7-48.4,0-96.4,9.9-140.7,29.3,33.7-59.7,47.7-125.7,41.7-196.7Z"/>
  </g>
</svg>