<svg xmlns="http://www.w3.org/2000/svg" xmlns:xlink="http://www.w3.org/1999/xlink" version="1.1" id="Layer_1" x="0px" y="0px" style="enable-background:new 0 0 2560 2560;" xml:space="preserve" viewBox="548.1 581 1706.2 1196.7">
<style type="text/css">
	.st0{fill:#27367b;}
</style>
<g>
	<g>
		<g>
			<path class="st0" d="M1647.9,842.7c-102.5,0-226.5,52.1-291.3,160c-46.7-100.7-134.8-160-276.9-160     c-101.4,0-201.2,50.8-256.1,124.1l-29.8-151.3l-245.7,48.1l29.9,152.2l0.1,2.4l-0.1,741.3h240.9V1294     c0-118.7,61.1-222.9,183.4-222.9c129.4,0,156.4,88.1,156.4,206.8v481.8h240.9V1285c0-118.7,64.7-213.9,183.4-213.9     c127.6,0,156.4,88.1,156.4,206.8v499.8l240.9-47.2v-483.2C1980.5,1017.1,1901.4,842.7,1647.9,842.7z"/>
		</g>
		<path class="st0" d="M2099.9,581c-83,0-152.4,69.5-152.4,154.3c0,83,69.5,152.4,152.4,152.4c84.9,0,154.4-69.5,154.4-152.4    C2254.2,650.4,2184.8,581,2099.9,581z"/>
	</g>
</g>
</svg>
