<svg xmlns="http://www.w3.org/2000/svg" xmlns:xlink="http://www.w3.org/1999/xlink" width="1080" height="1080" viewBox="0 0 1080 1080"><defs><linearGradient id="a" x2="1" y2="1" gradientUnits="objectBoundingBox"><stop offset="0" stop-color="#f09c42"/><stop offset="1" stop-color="#af4e26"/><stop offset="1" stop-color="#381c19"/></linearGradient></defs><g transform="translate(-4757 3963)"><g transform="translate(2366 -15411)"><rect width="1080" height="1080" rx="150" transform="translate(2391 11448)" fill="url(#a)"/></g><g transform="translate(4963.336 -3728.5)"><g transform="translate(0 92.835)"><path d="M663.088,292.521C657.126,284.365,515.08,92.835,333.661,92.835S10.19,284.365,4.235,292.513a22.021,22.021,0,0,0,0,25.967c5.955,8.155,148.008,199.686,329.427,199.686S657.126,326.634,663.088,318.487A22,22,0,0,0,663.088,292.521ZM333.661,474.166c-133.634,0-249.376-127.123-283.638-168.681C84.241,263.891,199.74,136.835,333.661,136.835c133.628,0,249.361,127.1,283.638,168.681C583.081,347.109,467.582,474.166,333.661,474.166Z" transform="translate(0 -92.835)" fill="#fff"/></g><g transform="translate(201.662 173.501)"><path d="M286.722,154.725c-72.783,0-132,59.216-132,132s59.216,132,132,132,132-59.216,132-132S359.505,154.725,286.722,154.725Zm0,220a88,88,0,1,1,88-88A88.1,88.1,0,0,1,286.722,374.724Z" transform="translate(-154.722 -154.725)" fill="#fff"/></g></g></g></svg>